<svg width="40" height="40" viewBox="0 0 40 40" fill="none" xmlns="http://www.w3.org/2000/svg"><path fill-rule="evenodd" clip-rule="evenodd" d="M16.21.17c-.648.125-.663.215-.663 4.073V8.19h1.765v8.224h-2.059v5.876h2.06v14.174l-.817-.163c-.45-.09-1.572-.446-2.496-.79-.924-.346-2.485-1.166-3.47-1.822-.985-.657-2.465-2.003-3.29-2.992-.824-.989-1.875-2.602-2.336-3.586-.461-.983-1.032-2.702-1.27-3.819-.236-1.117-.43-2.625-.43-3.352 0-.728.191-2.226.426-3.33.234-1.105.743-2.69 1.13-3.525.387-.835 1.3-2.32 2.03-3.302.73-.982 2.13-2.37 3.113-3.085l1.787-1.3.017-1.836c.01-1.01-.105-1.836-.253-1.836-.148 0-1.249.654-2.446 1.454-1.197.8-2.794 2.113-3.548 2.919-.755.806-1.883 2.253-2.506 3.216C2.33 10.278 1.45 12.171 1 13.52a19.082 19.082 0 00-.97 5.128c-.082 1.496.008 3.565.205 4.7.194 1.114.692 2.886 1.107 3.936.414 1.05 1.338 2.797 2.053 3.882.715 1.084 2.076 2.67 3.023 3.525.948.854 2.452 1.992 3.342 2.528.89.537 2.586 1.312 3.767 1.722 1.225.425 3.13.813 4.437.902l2.29.157.005-3.788.006-3.787 3.497-3.672c2.5-2.625 3.547-3.547 3.673-3.232.097.243.875 2.933 1.728 5.978l1.553 5.537 1.46-1.154c.803-.635 2.153-1.912 3-2.837.855-.937 2.061-2.75 2.717-4.09.649-1.323 1.389-3.199 1.645-4.168.286-1.08.465-2.957.462-4.847-.003-1.845-.19-3.794-.466-4.848-.254-.969-1.012-2.886-1.686-4.26-.983-2.005-1.72-2.99-3.747-5.002-1.75-1.737-3.172-2.843-4.641-3.607-1.165-.606-3.138-1.362-4.385-1.68-1.607-.41-3.134-.568-5.236-.54-1.632.022-3.266.097-3.63.168zm7.498 3.466c1.01.238 2.73.864 3.824 1.391 1.33.642 2.674 1.638 4.068 3.015 1.144 1.13 2.503 2.803 3.02 3.715.515.913 1.2 2.686 1.521 3.94.321 1.254.582 3.151.58 4.216-.003 1.065-.206 2.788-.451 3.83-.246 1.042-.845 2.694-1.331 3.672-.486.978-1.251 2.223-1.7 2.765l-.816.987-1.123-4.071c-.618-2.24-1.186-4.237-1.263-4.439-.085-.222.105-.367.48-.367.589 0 .62-.146.62-2.938v-2.938h-2.84l-1.235-4.48c-.68-2.464-1.37-4.975-1.535-5.581l-.3-1.102h-6.444V3.195l1.544.004c.85.002 2.37.199 3.381.437zm-.687 5.971c.266 1.265.259 1.28-1.25 2.788l-1.518 1.515V8.155l1.25.09c1.217.088 1.258.125 1.518 1.362zm1.916 6.587c.013.121-.666.22-1.508.22H21.9l1.158-1.184 1.158-1.185.35.965c.192.53.36 1.063.372 1.184zm-1.412 8.7c-1.309 1.433-2.58 2.77-2.826 2.974-.393.326-.446.018-.446-2.605V22.29h5.654l-2.38 2.604z" fill="#fff"/></svg>